<svg xmlns="http://www.w3.org/2000/svg" width="24" height="22" viewBox="0 0 24 22">
  <g id="Vector_Smart_Object" data-name="Vector Smart Object" transform="translate(-5.217 -0.372)">
    <path id="패스_1" data-name="패스 1" d="M17.217,22.372a1.232,1.232,0,0,1-.827-.321c-.992-.9-1.937-1.726-2.77-2.459l0,0a52.109,52.109,0,0,1-6.025-5.836A9.347,9.347,0,0,1,5.217,7.745,7.821,7.821,0,0,1,7.1,2.5,6.285,6.285,0,0,1,11.845.372,5.837,5.837,0,0,1,15.564,1.7a7.81,7.81,0,0,1,1.512,1.63l.141.2.141-.2A7.813,7.813,0,0,1,18.87,1.7,5.837,5.837,0,0,1,22.59.372,6.285,6.285,0,0,1,27.332,2.5a7.821,7.821,0,0,1,1.885,5.243,9.346,9.346,0,0,1-2.375,6.008,52.088,52.088,0,0,1-6.023,5.834c-.79.7-1.774,1.56-2.776,2.464A1.232,1.232,0,0,1,17.217,22.372ZM11.845,1.485A5.234,5.234,0,0,0,7.9,3.257,6.693,6.693,0,0,0,6.3,7.745a8.176,8.176,0,0,0,2.127,5.3,51.461,51.461,0,0,0,5.892,5.7l.007.006c.838.737,1.789,1.574,2.779,2.468l.114.1.114-.1c1.02-.917,2-1.78,2.79-2.474l.007-.006a51.411,51.411,0,0,0,5.886-5.691,8.177,8.177,0,0,0,2.127-5.3,6.693,6.693,0,0,0-1.6-4.488A5.233,5.233,0,0,0,22.59,1.485a4.8,4.8,0,0,0-3.06,1.093,7.268,7.268,0,0,0-1.689,2.016.715.715,0,0,1-1.248,0A7.261,7.261,0,0,0,14.9,2.578,4.8,4.8,0,0,0,11.845,1.485Z"/>
  </g>
</svg>
